<svg id="ロゴ" xmlns="http://www.w3.org/2000/svg" xmlns:xlink="http://www.w3.org/1999/xlink" viewBox="0 0 222 154.96"><defs><style>.cls-1,.cls-2{fill:none;}.cls-1,.cls-2,.cls-4{stroke:#fff;stroke-miterlimit:10;stroke-width:2px;}.cls-2{stroke-linecap:round;}.cls-3{clip-path:url(#clip-path);}.cls-12,.cls-5,.cls-6{fill:#fff;}.cls-6{font-size:22px;font-family:NotoSansJP-Bold-90ms-RKSJ-H, Noto Sans JP;letter-spacing:0.15em;}.cls-7{letter-spacing:0.18em;}.cls-8{letter-spacing:0.17em;}.cls-9{letter-spacing:0.13em;}.cls-10{letter-spacing:0.13em;}.cls-11{letter-spacing:0.15em;}.cls-12{font-size:12px;font-family:Lato-Bold, Lato;font-weight:700;letter-spacing:0.15em;}</style><clipPath id="clip-path"><circle class="cls-1" cx="108" cy="46.51" r="45.51"/></clipPath></defs><line class="cls-2" x1="90.59" y1="70.74" x2="136.33" y2="70.74"/><line class="cls-2" x1="82.6" y1="74.94" x2="116.55" y2="74.94"/><line class="cls-2" x1="103.58" y1="79.73" x2="123.05" y2="79.73"/><path class="cls-1" d="M85.28,65.85c4.64-10.76,7.6-10.72,11.14-10.72,5.59,0,9.09,5.32,17,4,4-.68,5.12-2.4,8.18-2,4.5.64,7.58,5.13,9.49,8.83"/><g class="cls-3"><line class="cls-4" x1="65.35" y1="65.97" x2="150.54" y2="65.97"/></g><circle class="cls-1" cx="108" cy="46.51" r="45.51"/><circle class="cls-5" cx="119.58" cy="9.94" r="2"/><circle class="cls-5" cx="100.99" cy="29.03" r="2"/><circle class="cls-5" cx="106.69" cy="42.28" r="2"/><circle class="cls-5" cx="120.09" cy="47.62" r="2"/><circle class="cls-5" cx="133.33" cy="41.92" r="2"/><circle class="cls-5" cx="138.67" cy="28.52" r="2"/><circle class="cls-5" cx="132.97" cy="15.27" r="2"/><path class="cls-2" d="M119.71,13.69V24.3"/><path class="cls-2" d="M109.38,18.17l7.5,7.5"/><path class="cls-2" d="M105.24,28.64h10.61"/><path class="cls-2" d="M109.6,39.26l7.5-7.5"/><path class="cls-2" d="M120.31,43.4V32.79"/><path class="cls-2" d="M130.69,39l-7.5-7.5"/><path class="cls-2" d="M135.07,28.33H124.46"/><path class="cls-2" d="M130.59,17.66l-7.5,7.5"/><path class="cls-2" d="M112,10.1l4.61,11.12"/><path class="cls-2" d="M101.05,21.14l11.13,4.6"/><path class="cls-2" d="M101.15,36.65,112.28,32"/><path class="cls-2" d="M112.19,47.56l4.61-11.13"/><path class="cls-2" d="M127.7,47.46l-4.61-11.13"/><path class="cls-2" d="M138.61,36.42l-11.13-4.61"/><path class="cls-2" d="M138.51,20.91l-11.12,4.6"/><path class="cls-2" d="M127.47,10l-4.61,11.13"/><circle class="cls-5" cx="106.33" cy="15.64" r="2"/><line class="cls-2" x1="79.88" y1="29.81" x2="82.99" y2="35.2"/><line class="cls-2" x1="73.54" y1="40.54" x2="79.77" y2="40.54"/><line class="cls-2" x1="79.67" y1="51.39" x2="82.78" y2="46"/><line class="cls-2" x1="92.12" y1="51.51" x2="89.01" y2="46.12"/><line class="cls-2" x1="98.46" y1="40.79" x2="92.24" y2="40.79"/><line class="cls-2" x1="92.34" y1="29.94" x2="89.23" y2="35.33"/><path class="cls-2" d="M86.15,30.77l-.1,6.77"/><path class="cls-2" d="M77.5,35.58l5.82,3.49"/><path class="cls-2" d="M77.35,45.48l5.93-3.29"/><path class="cls-2" d="M85.85,50.56,86,43.79"/><path class="cls-2" d="M94.5,45.75l-5.82-3.49"/><path class="cls-2" d="M94.65,35.85l-5.92,3.29"/><text class="cls-6" transform="translate(31.97 131.42)">星<tspan class="cls-7" x="25.34" y="0">駆</tspan><tspan class="cls-8" x="51.35" y="0">花</tspan><tspan class="cls-9" x="77.02" y="0">火</tspan><tspan class="cls-10" x="101.9" y="0">大</tspan><tspan class="cls-11" x="126.72" y="0">会</tspan></text><text class="cls-12" transform="translate(0 151.54)">HOSHIKAKE HANABI FESTIVAL</text></svg>